<svg fill="#a5a5a5" height="25" width="25" version="1.1" id="Layer_1" xmlns="http://www.w3.org/2000/svg" xmlns:xlink="http://www.w3.org/1999/xlink" viewBox="0 0 512 512" xml:space="preserve" stroke="#a5a5a5"><g id="SVGRepo_bgCarrier" stroke-width="0"></g><g id="SVGRepo_tracerCarrier" stroke-linecap="round" stroke-linejoin="round"></g><g id="SVGRepo_iconCarrier"> <g> <g> <path d="M437.019,74.981C388.668,26.629,324.381,0,256,0S123.332,26.629,74.981,74.981C26.629,123.332,0,187.619,0,256 s26.629,132.668,74.981,181.019C123.332,485.371,187.619,512,256,512s132.668-26.629,181.019-74.981 C485.371,388.668,512,324.381,512,256S485.371,123.332,437.019,74.981z M69.276,372.727l56.47-56.47l-25.258-25.258L52.12,339.366 C41.56,313.637,35.721,285.49,35.721,256c0-121.463,98.816-220.279,220.279-220.279c54.316,0,104.093,19.772,142.54,52.481 l-93.328,93.328c-14.12-9.361-31.036-14.833-49.212-14.833c-49.241,0-89.302,40.061-89.302,89.302 c0,18.175,5.471,35.091,14.833,49.212L88.201,398.54C81.292,390.42,74.964,381.795,69.276,372.727z M309.581,256 c0,29.545-24.037,53.581-53.581,53.581S202.419,285.545,202.419,256s24.037-53.581,53.581-53.581S309.581,226.455,309.581,256z M256,476.279c-54.316,0-104.093-19.77-142.54-52.481l93.328-93.328c14.12,9.361,31.036,14.832,49.212,14.832 c49.241,0,89.302-40.061,89.302-89.302c0-18.175-5.471-35.091-14.834-49.212l93.329-93.328 c6.91,8.119,13.237,16.745,18.927,25.813l-56.47,56.47l25.258,25.258l48.367-48.367c10.559,25.729,16.398,53.876,16.398,83.366 C476.279,377.463,377.463,476.279,256,476.279z"></path> </g> </g> <g> <g> <circle cx="256" cy="256" r="17.86"></circle> </g> </g> </g></svg>